<svg xmlns="http://www.w3.org/2000/svg" xmlns:xlink="http://www.w3.org/1999/xlink" preserveAspectRatio="xMidYMid" width="58" height="56" viewBox="0 0 58 56">
  <defs>
    <style>
      .cls-1 {
        fill: #000;
        fill-rule: evenodd;
      }
    </style>
  </defs>
  <path d="M47.354,32.642 C45.861,33.015 44.759,34.298 44.613,35.835 L43.777,44.653 L43.778,44.653 L43.299,49.690 C43.066,52.146 39.559,53.723 38.858,54.013 C35.727,55.336 32.364,55.998 28.999,55.998 C25.634,55.998 22.268,55.336 19.131,54.011 C19.044,53.975 18.914,53.919 18.751,53.844 C17.611,53.315 14.900,51.839 14.696,49.690 L14.218,44.653 L14.219,44.653 L13.383,35.835 C13.237,34.298 12.135,33.015 10.642,32.642 C4.352,31.071 -0.002,25.424 0.053,18.911 C0.112,11.948 5.360,6.021 12.262,5.124 C14.142,4.881 16.021,5.027 17.860,5.557 C20.498,2.065 24.608,0.002 28.999,0.002 C33.390,0.002 37.501,2.064 40.139,5.557 C41.978,5.025 43.856,4.880 45.737,5.124 C52.638,6.021 57.887,11.948 57.947,18.911 C58.002,25.424 53.647,31.070 47.354,32.642 ZM16.685,49.501 C16.774,50.436 18.657,51.642 19.902,52.163 C25.684,54.608 32.312,54.607 38.091,52.165 C39.341,51.643 41.225,50.436 41.312,49.501 L41.436,48.201 C37.488,50.116 33.314,51.085 28.998,51.085 C24.683,51.085 20.509,50.116 16.561,48.201 L16.685,49.501 ZM45.480,7.112 C43.664,6.876 41.845,7.066 40.074,7.677 L39.352,7.927 L38.922,7.292 C36.687,3.982 32.978,2.005 28.999,2.005 C25.021,2.005 21.311,3.982 19.076,7.291 L18.647,7.926 L17.925,7.676 C16.645,7.234 15.339,7.012 14.029,7.012 C13.526,7.012 13.021,7.046 12.518,7.111 C6.600,7.880 2.099,12.960 2.048,18.928 C2.001,24.511 5.734,29.351 11.124,30.697 C13.437,31.275 15.144,33.263 15.370,35.645 L16.336,45.824 C20.333,47.978 24.589,49.081 28.999,49.081 C33.409,49.081 37.666,47.978 41.662,45.824 L42.629,35.645 C42.855,33.264 44.562,31.275 46.875,30.697 C52.265,29.352 55.997,24.512 55.950,18.928 C55.900,12.960 51.398,7.880 45.480,7.112 ZM37.984,44.074 C37.943,44.074 37.901,44.071 37.859,44.066 C37.312,43.998 36.925,43.497 36.993,42.948 L37.991,34.935 C38.059,34.385 38.563,34.002 39.105,34.065 C39.652,34.133 40.040,34.634 39.971,35.183 L38.973,43.196 C38.910,43.703 38.480,44.074 37.984,44.074 ZM33.990,8.015 C33.793,8.015 33.593,7.956 33.419,7.833 C28.834,4.619 24.660,7.773 24.619,7.806 C24.183,8.142 23.555,8.063 23.219,7.625 C22.882,7.187 22.962,6.558 23.399,6.220 C25.239,4.795 29.941,2.953 34.563,6.192 C35.015,6.508 35.125,7.133 34.810,7.586 C34.615,7.865 34.306,8.015 33.990,8.015 ZM26.005,36.061 C26.556,36.061 27.003,36.508 27.003,37.062 L27.003,45.075 C27.003,45.629 26.556,46.077 26.005,46.077 C25.454,46.077 25.007,45.629 25.007,45.075 L25.007,37.062 C25.007,36.508 25.454,36.061 26.005,36.061 ZM31.994,36.061 C32.545,36.061 32.992,36.508 32.992,37.062 L32.992,45.075 C32.992,45.629 32.545,46.077 31.994,46.077 C31.443,46.077 30.996,45.629 30.996,45.075 L30.996,37.062 C30.996,36.508 31.443,36.061 31.994,36.061 ZM20.140,44.066 C20.098,44.071 20.057,44.074 20.015,44.074 C19.519,44.074 19.088,43.703 19.026,43.196 L18.027,35.183 C17.958,34.634 18.347,34.133 18.894,34.065 C19.435,34.002 19.939,34.385 20.008,34.935 L21.006,42.948 C21.075,43.497 20.687,43.998 20.140,44.066 ZM16.013,12.020 C9.223,11.905 8.027,17.190 8.015,17.243 C7.913,17.712 7.498,18.030 7.040,18.030 C6.970,18.030 6.898,18.023 6.826,18.007 C6.288,17.889 5.946,17.355 6.065,16.815 C6.079,16.746 7.701,9.947 16.034,10.018 C16.585,10.024 17.028,10.478 17.022,11.030 C17.016,11.582 16.547,11.983 16.013,12.020 Z" class="cls-1"/>
</svg>
